# xmcd CD database file
#
# Track frame offsets:
#	150
#	23200
#	45438
#	58471
#	77123
#	92868
#	106218
#	123401
#	135098
#	153450
#	166982
#	176230
#
# Disc length: 2535 seconds
#
# Revision: 0
# Processed by: cddbd v1.5.2PL0 Copyright (c) Steve Scherf et al.
# Submitted via: CDex 1.51
#
DISCID=9909e50c
DTITLE=Don Redmond Band - Don Redmond Band
DYEAR=2005
DGENRE=Country
TTITLE0=A tribute to a friend
TTITLE1=I wiil fly again
TTITLE2=The way we like it
TTITLE3=Never further than a smile
TTITLE4=I remember
TTITLE5=Perfect picture
TTITLE6=One night at a time
TTITLE7=Some broken hearts never mend
TTITLE8=Why don't we spend the night
TTITLE9=Meet me in Stockholm
TTITLE10=Millers cave
TTITLE11=Catfish John
EXTD=YEAR: 2005
EXTT0=
EXTT1=
EXTT2=
EXTT3=
EXTT4=
EXTT5=
EXTT6=
EXTT7=
EXTT8=
EXTT9=
EXTT10=
EXTT11=
PLAYORDER=
